<svg xmlns="http://www.w3.org/2000/svg" viewBox="0 0 796.1 203.01"><defs><style>.cls-1{fill:#323025;}.cls-2{fill:#553e23;}.cls-3{fill:#493c27;}.cls-4{fill:#4b3b26;}.cls-5{fill:#3e3328;}.cls-6{fill:#47484a;}.cls-7{fill:#212121;}.cls-8{fill:#313130;}.cls-9{fill:#4d6b29;}.cls-10{fill:#24241e;}.cls-11{fill:#97a12a;}.cls-12{fill:#983d16;}.cls-13{fill:#435c25;}.cls-14{fill:#937c29;}.cls-15{fill:#973d15;}.cls-16{fill:#ce3f17;}.cls-17{fill:#963b15;}.cls-18{fill:#e6ca5c;}.cls-19{fill:#e5a30e;}.cls-20{fill:#843f13;}.cls-21{fill:#9e6124;}.cls-22{fill:#b87e24;}.cls-23{fill:#8d9927;}.cls-24{fill:#bc841c;}.cls-25{fill:#b06e2c;}.cls-26{fill:#853e13;}.cls-27{fill:#f4d967;}.cls-28{fill:#e39f0e;}.cls-29{fill:#9f6122;}.cls-30{fill:#bb8024;}.cls-31{fill:#b9801d;}.cls-32{fill:#843c13;}.cls-33{fill:#88531d;}.cls-34{fill:#726534;}.cls-35{fill:#b4702b;}.cls-36{fill:#d9d28e;}.cls-37{fill:#8e9c26;}.cls-38{fill:#4c6b2a;}.cls-39{fill:#323f39;}.cls-40{fill:#425a24;}.cls-41{fill:#949f2a;}.cls-42{fill:#953c15;}.cls-43{fill:#8b8628;}.cls-44{fill:#c09f28;}.cls-45{fill:#453928;}.cls-46{fill:#313e39;}.cls-47{fill:#4d2412;}.cls-48{fill:#ae9024;}.cls-49{fill:#ba9b27;}.cls-50{fill:#b19124;}.cls-51{fill:#443828;}.cls-52{fill:#313f39;}.cls-53{fill:#b49422;}.cls-54{fill:#cba827;}.cls-55{fill:#cda828;}.cls-56{fill:#cca828;}.cls-57{fill:#b89723;}.cls-58{fill:#bd9b24;}.cls-59{fill:#cea927;}.cls-60{fill:#1f1c18;}.cls-61{fill:#23201b;}.cls-62{fill:#181e1b;}.cls-63{fill:#1d2521;}.cls-64{fill:#cb3f17;}</style></defs><g id="Camada_2" data-name="Camada 2"><g id="Camada_1-2" data-name="Camada 1"><path class="cls-1" d="M762.08,202.11c-1.26-3.38-7.22-2-7-6.83a10.09,10.09,0,0,0-.89-1.25,2.81,2.81,0,0,1-.2-3,2.62,2.62,0,0,1,1.51-.49c10.26,1.12,20.56.18,28.79.52-5.41,0-12.86,0-20.31,0-1.63,0-3.35.34-4.81-.8a1.22,1.22,0,0,1,.21-1.56c5.65-1.93,11.5-1,17.25-1.08,15-.33,12.77,1.78,13-13,0-3.8,0-7.61,0-11.42,0-3.12-1.35-4.47-4.5-4.48-5.14,0-10.29.15-15.44-.09-2.94,0-5.88.12-8.82-.14a4.72,4.72,0,0,1-2.48-.91,1.29,1.29,0,0,1-.17-1.62,4.69,4.69,0,0,1,2.45-1c3-.27,5.93-.15,8.9-.15,4.57-.16,9.15-.13,13.72,0,6-.45,6.29-.64,6.3-6.31q.08-46.35,0-92.7c0-2.76.43-5.89-3.59-6.49a8.4,8.4,0,0,1-3.47-1,1.58,1.58,0,0,1-.63-1.59,3.34,3.34,0,0,1,1.89-1.8c5.84-1.43,5.86-1.43,5.89-7.61,0-5.29-.09-10.59,0-15.88.09-3.61-1.44-5.13-5-5-3.15.09-6.32.13-9.46-.05-1.9-.11-4.11.33-5.21-2,1.15-1.9,3.09-1.74,4.88-1.78,4.49-.11,9-.14,13.47,0,5.08.15,6,1.1,6.17,6.27.07,1.82,0,3.64,0,5.46V178.89c0,2.65-.07,5.3.14,7.94a7.53,7.53,0,0,0,1.45,3.25v2c-3.12,3.54-4.41,8.59-9,10.94h-25a2.54,2.54,0,0,0-.09-.95c5.6-2.32,11.47-.2,17.15-1.22C773.53,201.74,767.66,199.71,762.08,202.11Z"/><path class="cls-2" d="M784.71,14.19l6.66-.83a12.5,12.5,0,0,0,1.3-.45v-.73c-2.6-4.18-4.45-9-8.25-12.18h-1.83A2.74,2.74,0,0,0,782,1.11c0,.34-.16.87-.35.86-5.35-.09-10.68.43-16,.78a2.1,2.1,0,0,1-2.46-1.64A4.6,4.6,0,0,0,762.44,0h-.92c-1.59,1.37-1.48,4.23-3.65,5.08a.86.86,0,0,0,.37,1.34c4.38.64,8.75-.29,13.12.07,4,.32,8.18-1,12.1,1.15-.54,1.85-2,1-3,1-4.39.16-8.79,0-13.19.07-3.57.36-7-.11-9.78-2.87-1.64,2-3.63,3.85-1.35,6.79,11,0,22,0,33,0-11.29,0-22.58,0-33.87,0a1.24,1.24,0,0,0-1.26.93c.65,2,2.53,1.77,3.88,2.5a7.91,7.91,0,0,0,1.52.32c2.79.15,5.59.46,8.36-.33a2.49,2.49,0,0,0,1.16-1.07C774.1,13.32,779.46,14.88,784.71,14.19Z"/><path class="cls-3" d="M.08,191.11c1.37,0,1.14-2.42,2.76-2A4.36,4.36,0,0,1,4,189.9a3.52,3.52,0,0,0,1.25.7c10.63.29,21.25.14,31.87.05a3.25,3.25,0,0,1,2.72.69c1,1.29.26,2.1-.69,2.85-.33.27-.65.56-1,.85-.69,3.57-4.66,4.54-5.53,8H9.38c-4.42-2.35-8-5.53-9.3-10.91Z"/><path class="cls-4" d="M3.57,13.44c-1.08.21-1.77-.57-2.61-1V11.6c1.22-5,5.1-7.86,9-10.65H32.63l1.82,4.38a1,1,0,0,1-.38,1.24c-6.65.24-13.31-.11-20,0-1.59,0-3.24-.21-5.31,1,3,1.48,5.62.7,8.14.93,6,.15,12-.39,18,.33,1.21.78,3.62.42,3,3-1.71,1.24-3.71.91-5.62.93-8.81.1-17.63-.11-26.43.12a10.68,10.68,0,0,0-1.48.37Z"/><path class="cls-5" d="M763.14.89c0-.3,0-.59,0-.89h22V1c-2.16,2.25-5.2,1-7.39.91C772.89,1.69,767.74,4.21,763.14.89Z"/><path class="cls-6" d="M38,195l.07-1a20,20,0,0,1,8.29-1.36H747.55c2.49,0,5-.16,7.29,1.17.07.48.14,1,.22,1.46-26.13-.08-52.26-.22-78.38-.22q-316.59,0-633.17,0Z"/><path class="cls-7" d="M34.13,5.78a4.23,4.23,0,0,0,0-.87,3,3,0,0,1,3.08,1.82,8.56,8.56,0,0,0,2,2.32,7.75,7.75,0,0,1,2.4,2.12c1.12,2.4-2.1,4.39-.6,6.81.56,1.17,3.13,1.31,1.79,3.45-1.87,1.72-2.32,3.88-2.32,6.32q0,72.87,0,145.73a7.29,7.29,0,0,0,.62,3.86c.89,1.39,2.61,1.52,3.81,2.44.87,2.23-1.25,2.18-2.27,3-3.86,1.81-2,4.52-1.12,7.08a2.45,2.45,0,0,1-.23,2,1.07,1.07,0,0,1-1.26.21l-1.58-1-.94,0c-10.73.06-21.45,0-32.18,0-1.79,0-3.67.32-5.22-1l0-1Q.16,151.52.22,114q0-47,0-94c0-2-.14-4-.22-6l.15-.08A2.42,2.42,0,0,1,3.53,14a4.7,4.7,0,0,1,.76,1.71c.38,10.36.31,20.72,0,31.09-1,3.79.27,7.53.25,11.32-.13,29.83-.09,59.67,0,89.51,0,2.21-.83,4.7,1.29,6.52,2.82,1,5.74.45,8.61.64,4.94-.16,9.86-.14,14.79,0,3.88.19,6.32-.86,6.28-5.49-.26-34,.41-68-.39-102a254.33,254.33,0,0,0,.13-30.62,6.61,6.61,0,0,1,0-1.54,2.65,2.65,0,0,1,1.6-2.09c.66-.14,1.5-.12,1.22-1.22L35,9.9a4,4,0,0,1-.92-3.5Z"/><path class="cls-8" d="M38,10c-1.17-.85-.84-2.08-.79-3.23,2.15.07,4.31.22,6.47.22H746.35c4,0,8.19.55,11.81-2,0,.33,0,.66,0,1h0c-1.82,1.5-.22,4.79-3,5.77a1.12,1.12,0,0,1-1.65-.28c-1.25-2.46-3.56-2-5.67-2H690.93q-81.3,0-162.58-.07-125.25.06-250.51,0-72.36.1-144.71,0c-29.75.09-59.51,0-89.26.07C41.9,9.47,39.87,9.07,38,10Z"/><path class="cls-9" d="M782.19,47.72l2.91.06a4,4,0,0,1,.78,2.8c-.35,9.08.3,18.14.47,27.2.15,8-.48,16.14-.74,24.22-.5,15.2,1.31,30.34,1,45.53-.06,3.28.12,6.75-3.54,8.61L769,156.07c-1.51-1.61-1.45-3.66-1.45-5.63q-.07-48.7,0-97.41a8.91,8.91,0,0,1,1.17-5.26A15.2,15.2,0,0,1,782.19,47.72Z"/><path class="cls-10" d="M754.28,14c1.3.14,2.74-.38,3.83.78,1.14,10.73.28,21.5.47,32.25-.06,34.14,0,68.28,0,102.42a26.4,26.4,0,0,1-.42,6.93c0,.24,0,.49,0,.74,1,6.9.23,13.86.48,20.78.13,3.79-.35,7.61.52,11.37v.68c-1.31,1.85-3.19.76-4.83.93l-.18,1.33a1.6,1.6,0,0,1-2.32-.57,3.47,3.47,0,0,1,.22-2.68c1.73-3.32.67-5-3-5.17-1.83-.08-3.66-.06-5.49-.06H575.42a50.71,50.71,0,0,1-9.46-.42,24.67,24.67,0,0,1-4.63-1.46c-.86-.45-1.65-1.2-.45-2.21,2.79-1.52,5.84-1.05,8.8-1.05q86.79,0,173.59,0c9.27,0,9.27,0,9.27-9.25q0-68.84,0-137.68c0-2.62.46-5.32-.88-7.79-2-2.21-4.64-1.47-7-1.47q-87.27-.06-174.53-.11c-2.66,0-6.16,1.55-7.79-2.34,2.43-2.1,5.39-1.34,8.14-1.35q87.35-.06,174.68-.05c2.32,0,4.66.3,6.92-.35C754,17.41,753.34,15.25,754.28,14Z"/><path class="cls-11" d="M769.05,47.82q0,54.12,0,108.25l-8.79.08c-2.12-.91-2.05-2.79-2.06-4.63q0-49.88,0-99.76C758.2,46.19,762.51,44.7,769.05,47.82Z"/><path class="cls-12" d="M759.14,189.23a2.25,2.25,0,0,1-1.93-2.44c.06-9.5.09-19,.17-28.51,0-.4.49-.8.76-1.2l2,.2c1.69,1.95,1.43,4.33,1.45,6.63q0,9.18,0,18.36c0,1.73-.55,3.93,2.23,4.14s3.68-1.65,3.72-4.1c.11-6.12,0-12.24.07-18.36,0-2.29-.28-4.68,1.42-6.63,6.14,0,12.28.07,18.41-.11,2.86-.08,3.72,1,3.68,3.75-.14,8.1-.18,16.2,0,24.3.08,3.26-1.36,3.77-4.17,3.75C777.71,189,768.43,189.14,759.14,189.23Z"/><path class="cls-13" d="M783.1,156.14a13.36,13.36,0,0,0,2-8c-.24-18.84-2-37.69-.89-56.51.74-12.06-.46-24-.19-36a30.11,30.11,0,0,1,1-7.81c4.82-1,6.17.95,6.14,5.77-.2,31.62-.1,63.23-.11,94.85C791.13,156.36,791.13,156.36,783.1,156.14Z"/><path class="cls-14" d="M752.24,192l1.89.17c.24.56.47,1.11.71,1.66-5.82.07-11.64.21-17.46.21q-347.4,0-694.8,0c-1.49,0-3,0-4.49-.05L40,192.05a6.21,6.21,0,0,0,.85-.12l1-.13c28.9-.33,57.8-.06,86.7-.14,14.79,0,29.57,0,44.35,0q44.43.06,88.84,0,55.41.06,110.81,0,36,.06,72,0,57.89.06,115.78,0,92.25.08,184.49,0a49.89,49.89,0,0,1,6.47.16Z"/><path class="cls-15" d="M769,15.09l1.16-.33c5.63.05,11.26.3,16.88.1,3.39-.12,4.21,1.18,4.13,4.31-.19,7.09-.33,14.2,0,21.27.23,4.38-1.11,6.16-5.5,5.46a17,17,0,0,0-2.48-.07,25.93,25.93,0,0,1-14.35.14,7.2,7.2,0,0,1-1.27-4.66q-.17-10.82,0-21.63C767.63,18,767.75,16.38,769,15.09Z"/><path class="cls-16" d="M769.07,157.32c0,8.94-.15,17.89.15,26.82.16,5.12-3.27,3.64-6,4-3.78.55-3.23-1.62-3.18-4.08.17-8.94.12-17.88.15-26.82Z"/><path class="cls-13" d="M769.05,47.82c-9.8-.32-9.8-.32-9.8,9.4q0,46.34,0,92.68c0,2.12-.36,4.32,1,6.25l-2.09.19c-1.25-1-1-2.37-1-3.66q0-51.56,0-103.09a26.68,26.68,0,0,1,.32-2.94c1.29-1.3,3-1.35,4.59-1.22,6.63.55,13.28.76,19.91,1.28.07.34.14.67.2,1Z"/><path class="cls-17" d="M782,46.71l-24.5-.06c-.09-9.9-.2-19.79-.23-29.69a6.77,6.77,0,0,1,.85-2.22l1.09.22c2.47,1.39,2.35,3.83,2.4,6.13.1,5.46.22,10.94,0,16.4-.19,4.26.76,7.17,5.71,7.24a2.85,2.85,0,0,1,1.7,1l14.24.12Z"/><path class="cls-18" d="M754.31,190.84c1.41-1.36,3.26-.41,4.83-.93h33.58l.47,1.17a4,4,0,0,1-1.29.54q-17.65.09-35.32.07A7.1,7.1,0,0,1,754.31,190.84Z"/><path class="cls-19" d="M789.07,196.2c0,2.4-1.9,1.88-3.22,1.89q-12.36.12-24.71,0c-1,0-2.56.46-2.87-1.1-.22-1,.78-1.69,1.65-2.2,3.17.92,6.33-1,9.5-.05,5.43.09,10.86,0,16.29,0C787.13,194.75,788.27,195,789.07,196.2Z"/><path class="cls-20" d="M789.07,196.2c-3.46.09-6.84-.39-10.4,0a56.51,56.51,0,0,1-9.52-.18,2.13,2.13,0,0,1-.12-2.87c5.48,0,11,0,16.44-.1C787.7,193,789.57,193.21,789.07,196.2Z"/><path class="cls-21" d="M762.08,202.11c.23-1.26.8-2.14,2.24-2.14h21.22c0,.7,0,1.39.05,2.09H762.05Z"/><path class="cls-22" d="M769,193.16l.12,2.87c-1-.38-2.06-1.23-3.19-.35-2.33,1.83-4.2.68-6-.84C762.37,191.14,766,193.63,769,193.16Z"/><path class="cls-23" d="M754.28,14l.74,4.67c-1.56,1.49-3.49.72-5.22.72-60.24,0-120.49-.79-180.71.27-62.37,1.09-124.72.23-187.08.69-29.62.22-59.24.06-88.86,0q-103.26-.11-206.52.07c-11.26,0-22.53-.19-33.79-.07a51.67,51.67,0,0,1-13.75-1.46c-1.46-3.08,2.42-4.93,1.82-7.81,2.14-2.27,5-1.57,7.54-1.58,43.76-.11,87.52.08,131.28,0q28.47-.11,57,0c10.72.08,21.45,0,32.17,0q49.86,0,99.72,0,39-.11,77.94,0c33.22.08,66.45,0,99.67,0,8.1,0,16.21,0,24.31,0q88-.15,176,0c2,0,4-.06,5.81,1a6.78,6.78,0,0,1,1.78,2.33Z"/><path class="cls-16" d="M769,45.71c-8.91.14-8.73.14-9-8.73-.19-7.34,1-14.74-.83-22l9.8.13Q769,30.41,769,45.71Z"/><path class="cls-24" d="M758.15,6c10.35-1.28,20.69-2.09,30.91.88-.83,1.8-2.3,2-4.08,1.82-4.33-.49-8.7-.16-13-.5A4,4,0,0,0,768.2,10a33.57,33.57,0,0,0-4.38.16c-3.39.56-5.22-.82-5.68-4.15Z"/><path class="cls-25" d="M763.14.89l22,.08c1.39,1.75.9,3.05-1.26,2.71-6-.94-11.89.09-17.83.29C764.1,4,761.54,4.27,763.14.89Z"/><path class="cls-26" d="M768.2,10c0-2.68,1-3.19,3.93-3.12,5.62.13,11.31,1.78,16.93,0,.39,2.88-1.37,3.14-3.62,3.11C779.7,9.91,774,10,768.2,10Z"/><path class="cls-27" d="M754.1,12.85c-.19-.18-.36-.37-.53-.56,0-.56.19-.68.62-.28a1.2,1.2,0,0,0,.91-.26h37.57v1.1Z"/><path class="cls-28" d="M34.82,196.44C34,198,32.53,198.11,31,198.11c-8.13,0-16.25,0-24.38,0-2,0-4.46.15-2.55-3.12a44,44,0,0,0,9.93-.55c5.62.73,11.26.21,16.88.14C32.62,194.56,34.15,194.44,34.82,196.44Z"/><path class="cls-20" d="M34.82,196.44c-2.85-1.91-7.12-1.29-8.91-.55-3.6,1.48-7.16-2.4-10.19.74,0,0-1.15-1-1.76-1.49a1.51,1.51,0,0,1,.08-2c5.82,0,11.65,0,17.47-.07C34,193,35.44,193.64,34.82,196.44Z"/><path class="cls-29" d="M31.21,201.39H8.73c7.42-1.82,14.94-.92,22.42-1.32Z"/><path class="cls-14" d="M38.45,191c-.55.32-1.1.91-1.65.92q-17.53.09-35.06,0c-.52,0-1-.61-1.57-.93a310.54,310.54,0,0,1,37.86.05Z"/><path class="cls-18" d="M38,191.08.17,191a1.33,1.33,0,0,1-.06-1c11.15,0,22.3,0,33.44.05C35,190.13,36.89,189.18,38,191.08Z"/><path class="cls-30" d="M14,193.14c0,.66-.06,1.33-.08,2-3.32,1.3-6.63,2.05-9.9-.14C6.81,191.29,10.69,193.63,14,193.14Z"/><path class="cls-31" d="M14,9.89c-2.15.08-4.3.1-6.44.27S3.86,9.65,3.79,7.34C3.71,4.84,5.9,5.1,7.35,5.1c8.93,0,17.88-.43,26.78.68l.06.16c.06,2.63-1.75,2.56-3.64,2.65-4.21.2-8.42.11-12.61,0A4.78,4.78,0,0,0,14,9.89Z"/><path class="cls-32" d="M14,9.89c0-1.86.49-3.38,2.79-2.84,5.09,1.19,10.29-.56,15.39.67.93.23,1.72-.75,2-1.78,1.4,1.09.71,2.6.8,4Z"/><path class="cls-33" d="M21.89,1.15C24,2.44,26,.86,28.06,1c1.47.09,3.48-.14,3.45,1.77s-2,1.12-3.19,1.14c-5.09.07-10.18,0-15.26,0-.89-2.22.56-2.32,2.15-2.41C17.43,1.37,19.7,1.9,21.89,1.15Z"/><path class="cls-27" d="M38.09,11.83c.62.39.81.79,0,1.21a109.5,109.5,0,0,1-38-.16c1.17-1.83,3-.92,4.52-.93C15.81,11.82,27,11.85,38.09,11.83Z"/><path class="cls-34" d="M.15,12.88l38,.16c-.44.8-1.24.86-2,1a3.45,3.45,0,0,1-1.71.95A233.56,233.56,0,0,1,4.8,15,3.48,3.48,0,0,1,3.08,14L.15,13.93Z"/><path class="cls-35" d="M21.89,1.15c-1.48,1.44-3.35.65-5,.82s-3.36-.33-3.79,1.94A7.49,7.49,0,0,1,11.57,4c-1.2-.16-3.06.41-3.12-1.48s1.83-1.5,3-1.5C14.94,1,18.42,1.09,21.89,1.15Z"/><path class="cls-36" d="M754.12,22c0,50.56-.11,101.12,0,151.68,0,4.83-.87,6.35-6.13,6.33-60.39-.21-120.78-.12-181.17-.1-2.16,0-4.32.14-6.48.22-2.23,2.06-5,1.41-7.61,1.41q-60,.08-120.07,0c-16.37,0-32.75,0-49.12,0q-65.35,0-130.71,0-38.49,0-77,0-61.6-.06-123.21,0c-2.59,0-5.38.65-7.62-1.41L40.37,180c-1.56-1.53-.75-3.46-.75-5.18q-.07-73.78,0-147.58c0-5.82,0-5.9,5.81-6.6,2.47-.3,5-.42,7.43-.71,12.95.19,25.9,0,38.85,0a356.51,356.51,0,0,0,41.35,0c11.46,0,22.93,0,34.4,0a12.47,12.47,0,0,1,1.92.18,21.82,21.82,0,0,0,5.47.37c26.79,0,53.6.41,80.39-.19q21.66-.49,43.32-.25c14.8.17,29.58.29,44.38-.09,16.63-.43,33.27.26,49.9.53,28.45.45,56.9-.94,85.35-.57a358.58,358.58,0,0,0,41.47,0c11.64,0,23.28-.09,34.91.07a123.28,123.28,0,0,0,19.3,1.48q87.46-.13,174.94,0C750.55,21.44,752.43,20.92,754.12,22Z"/><path class="cls-37" d="M565.38,182.12q58.56.09,117.11.18c22.43,0,44.86,0,67.28.06,1.78,0,4.31-1.07,5,1.77.65,2.57.4,5-2.75,5.91-1.29,1.3-3,1.37-4.64,1.41s-3.33,0-5,0q-345.82,0-691.66,0c-3.23,0-6.7.92-9.65-1.37-3.3-3.48-2.91-6.71,1-8,3-1.1,6.21-1,9.36-1H554.07A49.35,49.35,0,0,1,565.38,182.12Z"/><path class="cls-38" d="M29.06,156.16l-15,0c-1.76-1.9-1.55-4.29-1.56-6.58q-.06-47.62,0-95.25c0-2.29-.16-4.66,1.29-6.7,4.58-2.25,9.42-1.14,14.16-.94,2.13.09,3.05,1.75,3.42,3.7a29.13,29.13,0,0,1,.32,5.44q0,45.91,0,91.83C31.64,150.66,32.45,154.09,29.06,156.16Z"/><path class="cls-39" d="M167.85,21.05,133,21q-20.53-.45-41,0H53.1c-3.3-1.39-7,1.19-10.22-1.06-1.31-.21-2.88.48-3.79-1.11,21.26.08,42.52.22,63.79.23q84.59,0,169.18,0,71.32,0,142.65-.08,107.3,0,214.59,0,60.39,0,120.77,0c1.65,0,3.3-.28,4.95-.43-1.55,2.37-3.95,1.23-5.92,1.24Q655.83,20,562.57,20c-2.53,1.9-5.55.13-8.21,1.06L519.5,21c-2-1.28-4.17-.72-6.21-.58a215.15,215.15,0,0,1-29.61,0c-1.71-.12-3.62-.72-5.22.59-22.12.18-44.24.5-66.36.51q-118.78.06-237.57-.07c-2,0-3.95-.28-5.93-.43,3.07-1.39,6.31-.28,9.46-.63q35.38,0,70.77,0-35.12,0-70.23,0C175,20.75,171.36,19.63,167.85,21.05Z"/><path class="cls-40" d="M29.06,156.16c1.2-1.77,1-3.77,1-5.75,0-32.41-.1-64.81.1-97.22,0-4.44-1.25-5.9-5.61-5.47a103.83,103.83,0,0,1-10.44,0C6.9,49,6.51,53.94,6.57,60.1c.28,29.32.14,58.64.1,88,0,2.76.53,5.68-1.49,8.1-3.65-.41-2.13-3.27-2.13-5q-.15-47.67,0-95.34c0-3-2-6.17.28-9.12C4.5,45.51,6,45.43,7.49,45.42c7.77-.06,15.53-.38,23.29-.17,1.81,0,3.67,0,5.11,1.44,1.54,2,1.12,4.42,1.12,6.71q0,47.48,0,95C37,156.38,37,156.38,29.06,156.16Z"/><path class="cls-41" d="M5.18,156.16Q5.09,103.8,5,51.42c0-2.75.82-4,3.68-3.74,1.82.16,3.65.06,5.48.08q0,54.2-.07,108.38Z"/><path class="cls-15" d="M14.08,157.25c6.47,0,12.93.07,19.39-.05,2.58-.06,3.52.84,3.49,3.43-.11,8.42-.09,16.85,0,25.27,0,2.38-.93,3.13-3.26,3.12q-13.42-.06-26.85.17c-2.65,0-3.95-.69-3.91-3.61.13-8.43,0-16.85,0-25.28,0-1.49-.14-3.14,2.17-3,1.8,2.11,1.42,4.68,1.44,7.12,0,6,0,11.92,0,17.88,0,1.74-.52,3.93,2.27,4.1s3.64-1.73,3.68-4.15c.12-6.13,0-12.25.07-18.38C12.63,161.58,12.39,159.19,14.08,157.25Z"/><path class="cls-42" d="M35.89,46.69H3.34C2.56,36.1,3,25.5,3.1,14.91A1.45,1.45,0,0,1,4.74,15C6.83,17,6.52,19.52,6.56,22c.1,5.93,0,11.86.07,17.79,0,2.28.36,4.37,3.4,4.4s3.54-1.95,3.53-4.29c0-6.42.39-12.84-.36-19.25-.24-2.1-.86-4.29,1.08-6,7.28-.07,14.56-.62,21.82.27C37.32,25.49,37.74,36.09,35.89,46.69Z"/><path class="cls-43" d="M41.11,190.07l507.75,0q101.6,0,203.19-.06c.07.65.13,1.3.19,2l-.32.12c-63.83-.11-127.66,0-191.49-.05H173c-43.89.05-87.79-.09-131.68.07l-.42-.2Z"/><path class="cls-44" d="M179.84,10.9,47.38,11c-2.16,0-4.31.08-6.47.12L38,10C37.91,7.52,39.75,8,41.13,8q45.93,0,91.85.1c14.38.78,28.77.07,43.15.43C177.46,8.6,180.73,6.87,179.84,10.9Z"/><path class="cls-16" d="M14.08,157.25c0,8.95-.15,17.91.16,26.84.18,5.1-3.19,3.71-6,4.09-3.66.5-3.31-1.46-3.25-4,.2-8.94.11-17.89.13-26.84Z"/><path class="cls-45" d="M181.87,182.13q-51.93,0-103.85.07c-12,0-24-.07-35.94-.11l3-2c22.55-.09,45.1-.25,67.65-.25,21.06,0,42.11.16,63.17.26,1.3,1,2.81.34,4.22.54C181,180.77,182.16,180.59,181.87,182.13Z"/><path class="cls-46" d="M42.88,20c3.4.4,7-1.3,10.22,1.06-2.81.15-5.67.66-8.44.37-4.13-.43-4.88,1.33-4.87,5,.13,43.76,0,87.53.21,131.29,0,7.41-1.31,14.86.37,22.25-2.13-.92-1.37-2.82-1.37-4.34,0-50,0-100.07-.09-150.1C38.9,22.28,40.06,20.78,42.88,20Z"/><path class="cls-47" d="M4.16,15,3.1,14.91c0-.3,0-.6,0-.89l33,0a8.42,8.42,0,0,0,0,.87l-22,.12C10.75,17.14,7.46,16.73,4.16,15Z"/><path class="cls-48" d="M754.19,12a.77.77,0,0,1-.62.28c-2.18-1.63-4.72-1.33-7.2-1.33l-176-.05C567,9,563.27,10.16,559.73,10c-4.43-.21-8.88-.05-13.32-.05-5.77-.19-11.56.39-17.33-.35a1.1,1.1,0,0,1-.66-1.47Q568.32,8,608.21,8q71.09,0,142.15,0C753.39,7.93,755.87,7.87,754.19,12Z"/><path class="cls-49" d="M528.42,8.13c0,.27,0,.54,0,.82-1.87,1.6-4.13,1-6.23,1-23.11.05-46.22,0-69.34.05-2.11,0-4.35-.5-6.29.89h-78c-1.93-1.4-4.17-.89-6.28-.89q-38.64,0-77.28,0a27.33,27.33,0,0,1-6.45-.3,1.21,1.21,0,0,1-.81-1.51q46.44-.06,92.87-.13,76.16,0,152.3,0C524.77,8,526.6,8.08,528.42,8.13Z"/><path class="cls-50" d="M277.77,8.13c0,.28,0,.55,0,.82-2.83,1.89-6,.62-9,1-8.88,0-17.77,0-26.66,0-1.78,0-3.66-.35-5.22.94h-57C179.19,7.84,176.71,9,175,9c-12.25-.1-24.51,0-36.76-.1-1.76,0-3.67.58-5.25-.78C153.62,8.08,174.25,8,194.89,8Q236.34,8,277.77,8.13Z"/><path class="cls-51" d="M565.38,182.12q-53.43,0-106.85.07c-10.65,0-21.29-.06-31.94-.09-.27-1.54.88-1.33,1.78-1.46,1.4-.2,2.91.48,4.2-.54,22.05-.1,44.1-.27,66.15-.28,20.56,0,41.12.18,61.67.27C561.54,182,564.22,180.21,565.38,182.12Z"/><path class="cls-52" d="M554.36,21.05c2.49-2.24,5.47-.73,8.21-1.06,1.74,1.52,3.83.78,5.74.78q89.88.07,179.76.1c2,0,4.36-1,6,1.09-2.47-.14-5-.39-7.43-.39l-185.9-.09C558.64,21.48,556.5,21.2,554.36,21.05Z"/><path class="cls-53" d="M560.38,191.11l186.79,0c1.67,0,3.34-.1,4.75,1-.94,1.4-2.39.91-3.65.91q-94,0-187.92,0A1.26,1.26,0,0,1,560.38,191.11Z"/><path class="cls-54" d="M41.3,192.13c1.55-1.31,3.43-1,5.25-1l126.33,0a1.19,1.19,0,0,1,0,1.88q-63.7,0-127.4,0C44.05,193,42.43,193.62,41.3,192.13Z"/><path class="cls-55" d="M560.38,191.11l0,1.88H444.58a1.2,1.2,0,0,1,0-1.88Z"/><path class="cls-56" d="M261.79,191.11H372.63a1.19,1.19,0,0,1,0,1.88H261.82A1.19,1.19,0,0,1,261.79,191.11Z"/><path class="cls-57" d="M261.79,191.11l0,1.88h-89l0-1.88Z"/><path class="cls-58" d="M372.61,193c0-.63,0-1.26,0-1.88h71.92l0,1.88Z"/><path class="cls-59" d="M268.79,9l9,0c28.49,0,57,0,85.46.09,1.83,0,4.51-1.42,5.38,1.83H268.81A1.2,1.2,0,0,1,268.79,9Z"/><path class="cls-59" d="M446.59,10.86c.7-3,3.17-1.83,4.89-1.83Q490,8.9,528.45,9h18a1.22,1.22,0,0,1,0,1.91Z"/><path class="cls-49" d="M268.79,9c0,.63,0,1.26,0,1.89l-32,0c.49-2.77,2.7-1.9,4.33-1.91C250.37,8.93,259.58,9,268.79,9Z"/><path class="cls-49" d="M546.37,10.87c0-.64,0-1.27,0-1.91,6.55,0,13.1-.05,19.65,0,1.62,0,3.83-.84,4.29,1.92Z"/><path class="cls-45" d="M389.61,182.13q-52.25,0-104.49.07c-12.44,0-24.87-.06-37.31-.1.66-3.15,3.76-.28,5-2,21.72-.09,43.44-.26,65.16-.25,21.89,0,43.77.17,65.66.26,1.3,1,2.82.35,4.22.54C388.76,180.77,389.9,180.59,389.61,182.13Z"/><path class="cls-60" d="M252.8,180.09c-1.15,1.94-3.82.13-5,2l-65.94,0c-1.5-2.14-4.5.11-6-2Q214.34,179.38,252.8,180.09Z"/><path class="cls-61" d="M389.61,182.13c-1.5-2.14-4.49.11-6-2,16.32-.42,32.63-.46,48.95,0-1.5,2.13-4.47-.09-6,2Z"/><path class="cls-46" d="M92,21c.89-1.34,2.29-1.13,3.59-1.13q16.93,0,33.86,0c1.3,0,2.7-.21,3.59,1.12A392.87,392.87,0,0,1,92,21Z"/><path class="cls-52" d="M478.46,21c.89-1.34,2.28-1.13,3.59-1.13q16.92,0,33.85,0c1.31,0,2.71-.21,3.6,1.12A395.64,395.64,0,0,1,478.46,21Z"/><path class="cls-46" d="M167.85,21.05c3.18-2.36,6.78-.69,10.16-1l.09.64-9.5.39-.37.16Z"/><path class="cls-62" d="M178.1,20.66A.82.82,0,0,1,178,20h71.7v.64Z"/><path class="cls-63" d="M386,20h43.21v.46H385.78Z"/><path class="cls-64" d="M4.16,15h9.89c1.45,8.84.69,17.77,1.07,26.66.19,4.48-2.43,4.05-5.36,4.17C6.61,46,4.85,45.38,5,41.58c.28-6.93.07-13.88.09-20.82C5.09,18.78,5.21,16.79,4.16,15Z"/></g></g></svg>